<svg width="577" height="191" viewBox="0 0 577 191" fill="none" xmlns="http://www.w3.org/2000/svg">
<g clip-path="url(#clip0_3075_4893)">
<path d="M134.349 43.8623C133.585 42.0782 132.88 40.3394 132.01 38.6196C131.775 38.0815 131.51 37.5841 131.227 37.0808C131.006 36.6047 130.73 36.1262 130.436 35.7128C130.015 34.8004 129.438 33.9586 128.925 33.1178C125.8 27.8122 121.716 23.0459 117.481 19.0561C116.692 18.3121 115.917 17.5183 115.079 16.8581C114.081 15.8314 112.923 14.9815 111.81 14.1539C108.893 11.9858 105.904 10.1951 102.816 8.42532C99.3149 6.58415 95.7598 4.83752 92.0515 3.70389C89.9624 2.87667 87.76 2.33591 85.6037 1.83677C78.7081 0.225291 71.6723 -0.328806 64.6622 0.187526C63.3484 0.291107 62.0472 0.502221 60.7384 0.668189C58.6308 0.935451 56.5237 1.1869 54.4558 1.77162C48.577 2.96563 42.77 5.21698 37.3048 8.06538C32.0965 10.753 27.189 14.2246 22.6983 18.3981C21.7422 19.279 20.7352 20.1377 19.8506 21.1209C18.7183 22.3464 17.5647 23.5706 16.5057 24.889C16.1472 25.2972 15.7525 25.6975 15.4499 26.1672C14.6545 27.0606 13.9602 28.0889 13.2485 29.0782C9.96379 33.5696 7.20206 38.5836 5.04001 43.9808C4.66341 44.9209 4.16922 45.9978 3.93296 46.9981C0.743101 55.9361 -0.740175 67.2179 0.360733 76.8969C0.824966 80.9776 1.77696 85.0114 3.03202 88.8378C3.73489 90.9802 4.5133 93.2036 5.4561 95.2067C7.27383 99.4032 9.37798 103.597 11.5733 107.518C12.1258 108.504 12.6634 109.611 13.2937 110.52C14.3131 112.386 15.3558 114.366 16.5211 116.101C17.3894 117.393 18.3213 118.631 19.2145 119.898C21.1724 122.732 23.1539 125.543 25.1585 128.329L40.8796 150.685L56.7643 173.274L62.4225 181.367C64.3555 184.177 66.2045 186.99 68.2328 189.712C68.6063 190.213 69.0509 190.707 69.58 190.943C70.1973 190.907 70.7181 190.217 71.1118 189.693C72.0101 188.501 72.8307 187.22 73.7217 186.018C73.7484 186.003 73.7793 185.995 73.8027 185.973C74.5407 185.285 76.8938 181.471 77.6666 180.344C78.5073 179.116 79.4081 177.949 80.2659 176.739L84.2091 171.097L114.275 128.311C118.576 122.085 123.396 116.051 127.313 109.483C131.176 103.003 134.69 96.1349 136.868 88.5478C137.558 86.147 138.196 83.645 138.623 81.1566C140.777 68.6188 138.926 55.3088 134.349 43.8623ZM69.7591 121.146C39.564 121.146 15.086 96.6677 15.086 66.4726C15.086 36.2775 39.564 11.7995 69.7591 11.7995C99.9542 11.7995 124.432 36.2775 124.432 66.4726C124.432 96.6678 99.9542 121.146 69.7591 121.146Z" fill="#5AC53D"/>
<path d="M106.778 48.0799C106.237 47.8423 105.573 47.7117 105.034 48.0408C104.492 48.3726 104.165 49.0548 104.014 49.7455C103.868 50.4071 103.994 51.9874 103.592 52.3961C103.289 52.3018 103.091 52.0039 102.913 51.6953C99.2736 46.3014 95.0112 35.6957 89.2982 33.6036C88.6874 33.3588 88.0281 33.1695 87.3857 33.1088C85.7997 32.9591 84.1781 33.0434 82.588 33.0587L76.2147 33.0725L68.8683 33.0742C67.558 33.0745 66.2235 33.004 64.9178 33.1045C64.2877 33.0478 63.6556 33.0847 63.0249 33.107C60.673 33.0093 58.3077 33.0666 55.9543 33.0736C54.4839 33.0779 52.962 32.9494 51.5029 33.1723C50.7708 33.284 50.0554 33.4994 49.3988 33.9157C44.2045 36.8504 41.3579 43.6658 38.1105 49.0342C37.409 50.194 36.7253 51.4696 35.877 52.4764C35.8255 52.4597 35.7713 52.4527 35.7227 52.4262C35.2749 52.182 35.4047 49.8649 35.2297 49.2081C35.1004 48.7231 34.8717 48.2967 34.4761 48.0849C33.6665 47.6513 32.4835 48.1124 31.701 48.4794C30.6126 48.864 28.3389 50.1755 27.8067 51.4474C27.6975 51.7084 27.6632 51.9935 27.7598 52.2712C28.0599 53.1342 29.4074 53.8156 30.1184 54.0717C30.8723 54.3434 32.832 54.352 33.2482 55.1493C33.133 56.2187 31.5822 58.5309 31.1071 59.8163C30.4857 61.4533 30.2103 63.1924 30.0613 64.9775C29.745 68.7673 29.939 72.6485 29.9023 76.4514C29.8789 78.8862 29.4974 90.6399 29.9365 92.1036C29.9475 92.1408 29.9609 92.1765 29.9732 92.2129C30.0531 92.571 30.1378 93.0804 30.4107 93.3072C31.0271 93.8183 39.4842 93.6077 40.6941 93.4854L41.115 92.8731C41.7558 90.9016 41.3465 87.8431 41.804 85.6488C42.8755 85.7258 43.9368 85.9218 45.0079 86.0076C48.8455 86.3138 52.7101 86.5471 56.553 86.7423C63.8645 87.0622 71.182 87.1327 78.4965 86.9545C83.2902 86.8403 88.0499 86.3673 92.8363 86.0846C94.441 85.9898 96.0772 85.7776 97.681 85.8035C97.8203 87.681 97.6657 91.6581 98.278 93.2643C99.0508 93.7503 107.421 93.7624 108.453 93.4198C108.581 93.3874 108.703 93.359 108.818 93.2797C109.166 93.0383 109.279 92.6438 109.374 92.1984C109.386 92.1579 109.398 92.1173 109.409 92.0761C109.737 90.8416 109.563 88.1881 109.558 86.799C109.549 83.4262 109.515 80.0534 109.456 76.6814C109.419 73.2187 109.485 69.7364 109.36 66.2784C109.312 64.9779 109.264 63.56 109.023 62.2938C108.507 59.5761 107.113 57.4751 106.106 55.0411C106.865 54.6533 107.647 54.5425 108.444 54.3349C108.853 54.2745 109.293 54.0853 109.686 53.9323C110.756 53.5147 111.31 52.8661 111.814 51.6886C110.573 49.766 108.664 48.7958 106.778 48.08V48.0799ZM35.544 78.057C33.7486 78.057 32.2931 76.6015 32.2931 74.8061C32.2931 73.0106 33.7486 71.5552 35.544 71.5552C37.3395 71.5552 38.795 73.0106 38.795 74.8061C38.795 76.6015 37.3395 78.057 35.544 78.057ZM43.5557 65.8817C41.644 65.8917 39.7243 66.0102 37.8143 65.8794C36.3376 65.7783 34.5102 65.3371 33.4985 63.9105C32.8464 62.9914 32.537 61.6829 32.6277 60.4781C32.6901 59.6496 33.0149 58.9754 33.5576 58.4707C33.8037 58.2712 34.0188 58.1489 34.1462 58.0824C38.5875 55.7665 47.017 63.6315 48.8174 65.3115C49.2069 65.6749 49.5113 65.9725 49.6674 66.1263C47.5306 65.9608 45.7039 65.8704 43.5558 65.8816L43.5557 65.8817ZM90.3026 40.3916C88.928 38.7107 87.0568 38.0183 85.1354 38.0065C83.4433 37.9961 81.4709 38.7115 80.2486 40.1809C79.5641 41.004 79.019 42.1405 79.0352 43.3365C79.0578 45.0903 80.3109 46.0685 81.2465 47.1808C80.609 48.1325 79.5682 48.9392 78.8415 49.93C78.2915 50.6811 77.1689 53.0636 76.6448 53.4145C76.3904 53.5851 75.9522 53.6501 75.68 53.5093C75.4873 53.4093 75.4687 53.3134 75.4103 53.0953C75.6639 51.5422 78.5726 48.3017 79.5058 47.0144C79.1243 46.5793 78.6909 46.252 78.3385 45.7718C77.6046 44.7705 77.0328 43.3451 77.5747 42.0395C77.855 41.3638 78.2146 40.8805 78.2486 40.0914C78.1231 39.8314 78.0599 39.7404 77.8039 39.6569C76.6375 39.2769 75.0839 39.5568 74.0503 40.2775C73.8724 40.3819 72.7862 41.0435 72.5065 42.4077C72.1685 44.0558 73.3113 45.2492 73.4055 45.3442C73.4995 45.4647 73.57 45.5803 73.6477 45.7156C73.5886 46.3967 72.7713 46.917 72.4059 47.4489C71.4493 48.8404 70.7875 50.3603 70.2035 52.0172C70.0982 52.3147 69.9759 52.8239 69.779 53.0372C69.6871 53.1366 69.6951 53.0946 69.5555 53.0652C69.1945 52.6219 68.9387 51.1736 68.6732 50.5129C68.4711 50.0097 68.2515 49.5009 68 49.031C67.658 48.3924 67.0726 47.705 66.8717 46.993C66.8082 46.7684 66.8228 46.675 66.911 46.471C67.5584 46.1263 68.4527 47.236 69.1133 47.1148L69.1532 46.9689C68.9442 46.0102 68.1489 45.4367 67.8869 44.5239C67.4208 42.9 68.1035 41.2598 67.1424 39.704C66.4884 38.6453 65.2952 38.263 64.2589 38.1025C63.2975 37.9534 61.424 38.3711 60.6756 39.141C60.6091 39.2096 60.5209 39.3275 60.5293 39.4501C60.5827 40.2325 62.1166 41.5065 61.9834 43.5629C61.8823 45.1233 60.8044 46.164 59.8783 47.0733C60.3122 47.6581 60.8447 48.1572 61.3178 48.6976C62.1579 49.6566 63.3894 51.3641 63.8957 52.6028C64.0094 52.8809 64.0174 53.0494 63.9316 53.3364C63.7931 53.469 63.6896 53.5309 63.5169 53.564C63.2195 53.6208 62.8499 53.609 62.5936 53.3936C62.0614 52.9462 61.3057 51.0707 60.8128 50.3422C59.9908 49.1275 59.0594 48.171 58.0271 47.2351C58.6474 46.4244 59.4397 45.9013 59.876 44.8823C60.2563 43.9941 60.4296 42.9074 60.1418 41.9453C59.7067 40.49 58.3923 39.3971 57.2684 38.7924C55.5463 37.8658 53.1354 37.7973 51.3819 38.6282C50.7961 39.0338 50.2104 39.4394 49.6247 39.845C49.1865 40.5152 48.7483 41.1855 48.3101 41.8558C48.0202 42.6986 47.9885 43.5619 48.2736 44.417C48.6439 45.5273 49.4298 46.3408 50.2255 47.0021C49.447 47.9493 48.5579 48.8515 47.851 49.8729C47.3114 50.6526 46.9056 51.6733 46.3091 52.3738C46.1046 52.614 45.9138 52.6367 45.6386 52.6408C44.6238 52.6564 41.077 52.3447 40.2983 51.6372C40.1397 51.075 40.2589 50.6069 40.4675 50.0816C40.7219 49.4409 41.1042 48.8699 41.4415 48.2904C42.2725 46.3991 43.4937 43.9039 45.1263 41.3862C46.0332 39.9877 46.9314 38.7915 47.1714 38.4739C47.9574 37.4338 48.6993 36.5351 49.352 35.7837C49.6988 35.5849 50.0457 35.386 50.3925 35.1872C51.41 34.1837 58.1204 34.5005 59.5487 34.5057C60.2038 34.5081 60.9917 34.3503 61.6274 34.4458C62.8829 34.6344 64.2407 34.2241 65.4654 34.5351C65.5709 34.5619 65.7043 34.5245 65.8096 34.5079C67.4354 34.2511 70.4078 34.4967 72.1615 34.5208C74.4121 34.5518 75.2474 34.4848 76.8609 34.4693C77.2593 34.4655 77.5914 34.4647 77.9113 34.4667C78.8166 34.4722 79.5945 34.4874 80.191 34.5028C80.7331 34.5167 81.1208 34.5303 81.2346 34.5341C84.6991 34.6488 85.7667 34.0642 87.3579 34.7365C88.3458 35.1538 89.0253 35.8401 90.1772 37.0034C90.6054 37.4359 90.9876 37.8759 91.7421 38.7641C93.0324 40.283 93.9482 41.4465 95.0705 42.9925C95.4408 43.5026 95.9231 44.1978 96.484 45.1167C97.0137 45.9845 97.4023 46.7774 98.1794 48.3632C98.8149 49.6602 99.0828 50.2839 98.8606 50.9812C98.7265 51.402 98.4919 51.6872 98.3503 51.7922C97.4358 52.4706 94.4314 52.5907 93.2949 52.621C92.8661 51.8718 92.3639 51.0752 91.776 50.2532C90.911 49.044 90.0312 48.0188 89.2092 47.1627C89.3969 46.9404 89.633 46.6011 89.9625 46.2325C90.7239 45.3808 91.2812 44.5872 91.3047 43.2619C91.3249 42.1321 90.9515 41.1855 90.3027 40.3915L90.3026 40.3916ZM103.684 78.057C101.889 78.057 100.433 76.6015 100.433 74.8061C100.433 73.0106 101.889 71.5552 103.684 71.5552C105.48 71.5552 106.935 73.0106 106.935 74.8061C106.935 76.6015 105.48 78.057 103.684 78.057ZM106.786 60.4781C106.877 61.683 106.568 62.9915 105.916 63.9105C104.904 65.3372 103.077 65.7784 101.6 65.8795C99.6899 66.0103 97.7702 65.8917 95.8585 65.8817C93.7103 65.8705 91.8838 65.9609 89.7469 66.1264C89.903 65.9726 90.2073 65.675 90.5969 65.3115C92.3973 63.6316 100.827 55.7665 105.268 58.0825C105.396 58.149 105.611 58.2712 105.857 58.4708C106.399 58.9755 106.724 59.6497 106.787 60.4782L106.786 60.4781Z" fill="#5AC53D"/>
</g>
<path d="M545.609 56.2962C548.39 51.8639 552.561 49.6478 558.122 49.6478C563.875 49.6478 568.418 51.74 571.749 55.9246C575.08 60.0815 576.746 65.5049 576.746 72.1946C576.746 79.3248 574.901 84.996 571.212 89.208C567.523 93.3926 562.994 95.4848 557.626 95.4848C552.919 95.4848 549.147 93.6128 546.311 89.8688H546.105V111.301H538.672V50.6388H545.444V56.2962H545.609ZM557.131 89.3732C560.599 89.3732 563.462 87.9417 565.72 85.0786C568.005 82.1879 569.147 77.8933 569.147 72.1946C569.147 66.8263 568.046 62.6969 565.844 59.8062C563.669 56.9156 560.875 55.4703 557.461 55.4703C553.937 55.4703 551.033 57.0808 548.748 60.3018C546.49 63.5228 545.362 67.6935 545.362 72.8141C545.362 78.2374 546.449 82.3531 548.624 85.1612C550.799 87.9692 553.634 89.3732 557.131 89.3732Z" fill="#5AC53D"/>
<path d="M509.353 49.6478C515.271 49.6478 520.172 51.5748 524.053 55.429C527.963 59.2832 529.917 64.7616 529.917 71.8643C529.917 80.4811 527.811 86.5789 523.599 90.1578C519.387 93.7092 514.638 95.4848 509.353 95.4848C503.819 95.4848 499.015 93.6541 494.941 89.9926C490.866 86.3312 488.829 80.5224 488.829 72.5663C488.829 64.858 490.797 59.118 494.734 55.3464C498.671 51.5473 503.544 49.6478 509.353 49.6478ZM509.353 89.3732C513.592 89.3732 516.813 87.804 519.016 84.6656C521.218 81.5272 522.319 77.3978 522.319 72.2772C522.319 66.7988 521.066 62.6693 518.561 59.8888C516.084 57.1083 513.014 55.7181 509.353 55.7181C505.581 55.7181 502.484 57.1359 500.061 59.9714C497.639 62.7795 496.427 66.9778 496.427 72.5663C496.427 78.1273 497.652 82.3256 500.103 85.1612C502.58 87.9692 505.664 89.3732 509.353 89.3732Z" fill="#5AC53D"/>
<path d="M479.042 94.4524H470.989V65.9591H439.523V94.4524H431.512V33.9145H439.523V58.7739H470.989V33.9145H479.042V94.4524Z" fill="#5AC53D"/>
<path d="M424.079 50.6389L407.313 95.1958C407.286 95.2508 407.258 95.3472 407.23 95.4848C405.634 100.44 403.762 104.46 401.614 107.543C399.495 110.654 396.466 112.209 392.53 112.209C391.208 112.209 389.598 111.934 387.698 111.383L386.955 104.363C388.386 104.804 389.79 105.024 391.167 105.024C393.92 105.024 395.819 104.267 396.866 102.753C397.939 101.239 399.137 98.4993 400.458 94.5351L383.816 50.6389H391.828L402.151 79.3386C402.757 81.1005 403.404 83.3717 404.092 86.1522H404.257C404.946 82.9588 405.826 79.9168 406.9 77.0261L416.522 50.6389H424.079Z" fill="#333FFF"/>
<path d="M376.714 94.4524H369.281V33.9145H376.714V94.4524Z" fill="#333FFF"/>
<path d="M329.225 56.2962C332.005 51.8639 336.176 49.6478 341.737 49.6478C347.491 49.6478 352.033 51.74 355.364 55.9246C358.695 60.0815 360.361 65.5049 360.361 72.1946C360.361 79.3248 358.516 84.996 354.827 89.208C351.138 93.3926 346.61 95.4848 341.241 95.4848C336.534 95.4848 332.762 93.6128 329.927 89.8688H329.72V111.301H322.287V50.6388H329.059V56.2962H329.225ZM340.746 89.3732C344.215 89.3732 347.078 87.9417 349.335 85.0786C351.62 82.1879 352.763 77.8933 352.763 72.1946C352.763 66.8263 351.661 62.6969 349.459 59.8062C347.284 56.9156 344.49 55.4703 341.076 55.4703C337.552 55.4703 334.648 57.0808 332.363 60.3018C330.106 63.5228 328.977 67.6935 328.977 72.8141C328.977 78.2374 330.064 82.3531 332.239 85.1612C334.414 87.9692 337.25 89.3732 340.746 89.3732Z" fill="#333FFF"/>
<path d="M311.138 94.4525H303.705V66.785C303.705 64.7478 303.567 63.0135 303.292 61.5819C303.016 60.1228 302.301 58.8427 301.144 57.7415C300.016 56.6128 298.24 56.0484 295.817 56.0484C292.899 56.0484 290.38 57.067 288.26 59.1042C286.141 61.1414 285.081 64.445 285.081 69.015V94.4525H277.648V65.9592C277.648 62.16 276.973 59.5585 275.624 58.1545C274.303 56.7504 272.417 56.0484 269.967 56.0484C266.773 56.0484 264.144 57.1496 262.08 59.352C260.042 61.5544 259.024 65.6701 259.024 71.6991V94.4525H251.591V50.6388H258.281V56.7504H258.446C261.419 52.0153 265.782 49.6478 271.536 49.6478C274.757 49.6478 277.4 50.2947 279.465 51.5886C281.557 52.855 283.071 54.7683 284.007 57.3286C287.256 52.208 291.757 49.6478 297.51 49.6478C302.053 49.6478 305.453 50.8728 307.71 53.323C309.995 55.7731 311.138 59.4484 311.138 64.3487V94.4525Z" fill="#333FFF"/>
<path d="M240.359 94.4524H232.926V50.6388H240.359V94.4524ZM240.359 42.3386H232.926V33.9145H240.359V42.3386Z" fill="#333FFF"/>
<path d="M213.311 51.6712C212.981 47.817 211.59 44.9264 209.14 42.9993C206.69 41.0447 203.18 40.0674 198.61 40.0674C194.481 40.0674 191.122 40.8382 188.534 42.3799C185.946 43.9216 184.652 46.1652 184.652 49.1109C184.652 51.7263 185.644 53.6809 187.626 54.9748C189.635 56.2411 193.462 57.5075 199.106 58.7739C204.116 59.8751 208.204 61.0038 211.37 62.16C214.536 63.3163 217.248 65.1195 219.505 67.5696C221.763 69.9923 222.891 73.2545 222.891 77.3565C222.891 82.5596 220.813 86.8818 216.656 90.323C212.526 93.7642 207.131 95.4848 200.468 95.4848C191.962 95.4848 185.588 93.5853 181.349 89.7862C177.137 85.987 174.907 81.0592 174.659 75.0027L182.257 74.342C182.615 79.1872 184.487 82.7248 187.873 84.9547C191.26 87.1571 195.348 88.2583 200.138 88.2583C204.625 88.2583 208.245 87.336 210.998 85.4915C213.779 83.647 215.169 81.1418 215.169 77.9759C215.169 74.6723 213.724 72.2635 210.833 70.7493C207.943 69.2352 203.084 67.7486 196.256 66.2895C189.456 64.8029 184.556 62.7244 181.555 60.054C178.555 57.3836 177.054 53.9149 177.054 49.6478C177.054 44.8025 178.954 40.7969 182.753 37.631C186.552 34.4651 191.728 32.8821 198.28 32.8821C204.997 32.8821 210.393 34.4651 214.467 37.631C218.569 40.7694 220.744 45.243 220.992 51.0518L213.311 51.6712Z" fill="#333FFF"/>
<path d="M433.65 130L432.456 133.195C431.597 132.695 430.756 132.445 429.935 132.445C428.639 132.445 427.658 133.028 426.991 134.196C426.323 135.351 425.99 136.974 425.99 139.065V149.786H422.525V129.365H425.682V132.445H425.759C426.862 130.084 428.306 128.903 430.089 128.903C431.27 128.903 432.456 129.269 433.65 130Z" fill="#333FFF"/>
<path d="M418.445 140.451H403.144C403.285 142.709 403.927 144.435 405.068 145.628C406.223 146.822 407.66 147.418 409.38 147.418C410.701 147.418 411.811 147.072 412.709 146.379C413.607 145.673 414.294 144.615 414.769 143.203L418.329 143.646C417.752 145.776 416.693 147.412 415.154 148.554C413.614 149.696 411.689 150.267 409.38 150.267C406.313 150.267 403.914 149.33 402.182 147.457C400.462 145.571 399.603 142.998 399.603 139.739C399.603 136.518 400.437 133.907 402.105 131.906C403.785 129.904 406.146 128.903 409.187 128.903C410.676 128.903 412.106 129.231 413.479 129.885C414.865 130.539 416.039 131.656 417.001 133.234C417.963 134.799 418.445 137.205 418.445 140.451ZM414.884 137.603C414.743 135.524 414.095 134.029 412.94 133.118C411.798 132.194 410.547 131.733 409.187 131.733C407.558 131.733 406.217 132.278 405.165 133.369C404.113 134.459 403.503 135.871 403.336 137.603H414.884Z" fill="#333FFF"/>
<path d="M395.445 149.786H391.962V136.891C391.962 135.223 391.602 133.972 390.884 133.138C390.165 132.304 389.094 131.887 387.67 131.887C386.258 131.887 384.995 132.381 383.878 133.369C382.775 134.344 382.223 136.095 382.223 138.623V149.786H378.759V121.571H382.223V131.694C383.865 129.834 385.918 128.903 388.382 128.903C389.703 128.903 390.967 129.173 392.173 129.712C393.38 130.251 394.226 131.078 394.714 132.194C395.201 133.311 395.445 134.863 395.445 136.852V149.786Z" fill="#333FFF"/>
<path d="M375.756 149.747C374.73 149.952 373.864 150.055 373.158 150.055C371.644 150.055 370.541 149.792 369.848 149.266C369.155 148.727 368.731 148.047 368.577 147.226C368.423 146.405 368.346 145.263 368.346 143.8V132.04H365.825V129.365H368.346V124.284L371.811 122.186V129.365H375.275V132.04H371.811V143.992C371.811 145.019 371.913 145.75 372.119 146.186C372.337 146.61 372.876 146.822 373.735 146.822C374.236 146.822 374.749 146.77 375.275 146.668L375.756 149.747Z" fill="#333FFF"/>
<path d="M363.593 140.451H348.292C348.433 142.709 349.075 144.435 350.217 145.628C351.372 146.822 352.809 147.418 354.528 147.418C355.85 147.418 356.96 147.072 357.858 146.379C358.756 145.673 359.442 144.615 359.917 143.203L363.478 143.646C362.9 145.776 361.842 147.412 360.302 148.554C358.762 149.696 356.838 150.267 354.528 150.267C351.462 150.267 349.062 149.33 347.33 147.457C345.611 145.571 344.751 142.998 344.751 139.739C344.751 136.518 345.585 133.907 347.253 131.906C348.934 129.904 351.295 128.903 354.336 128.903C355.824 128.903 357.255 129.231 358.628 129.885C360.013 130.539 361.187 131.656 362.15 133.234C363.112 134.799 363.593 137.205 363.593 140.451ZM360.033 137.603C359.891 135.524 359.243 134.029 358.089 133.118C356.947 132.194 355.696 131.733 354.336 131.733C352.706 131.733 351.365 132.278 350.313 133.369C349.261 134.459 348.652 135.871 348.485 137.603H360.033Z" fill="#333FFF"/>
<path d="M340.632 147.033C340.632 149.933 340.343 152.095 339.766 153.519C339.188 154.956 338.162 156.073 336.686 156.868C335.211 157.664 333.446 158.061 331.393 158.061C329.084 158.061 327.159 157.548 325.62 156.522C324.08 155.495 323.31 153.814 323.31 151.479L326.678 151.999C326.806 153.077 327.256 153.885 328.025 154.424C328.808 154.963 329.918 155.232 331.355 155.232C333.151 155.232 334.466 154.867 335.3 154.135C336.134 153.404 336.641 152.512 336.821 151.46C337.013 150.408 337.11 148.958 337.11 147.11C335.608 148.894 333.716 149.786 331.432 149.786C328.776 149.786 326.64 148.804 325.023 146.841C323.419 144.878 322.617 142.401 322.617 139.412C322.617 136.409 323.4 133.907 324.965 131.906C326.531 129.904 328.699 128.903 331.47 128.903C333.883 128.903 335.846 129.872 337.36 131.81H337.437V129.365H340.632V147.033ZM331.759 146.956C333.235 146.956 334.543 146.373 335.685 145.205C336.827 144.025 337.398 142.055 337.398 139.296C337.398 136.858 336.853 134.992 335.762 133.696C334.672 132.387 333.325 131.733 331.721 131.733C330.078 131.733 328.737 132.4 327.698 133.734C326.672 135.069 326.158 136.897 326.158 139.219C326.158 141.901 326.697 143.864 327.775 145.109C328.866 146.34 330.194 146.956 331.759 146.956Z" fill="#333FFF"/>
<path d="M310.281 128.903C313.04 128.903 315.324 129.802 317.133 131.598C318.955 133.394 319.866 135.948 319.866 139.258C319.866 143.274 318.884 146.116 316.921 147.784C314.958 149.439 312.745 150.267 310.281 150.267C307.702 150.267 305.463 149.413 303.564 147.707C301.665 146 300.716 143.293 300.716 139.585C300.716 135.992 301.633 133.317 303.468 131.559C305.303 129.789 307.574 128.903 310.281 128.903ZM310.281 147.418C312.257 147.418 313.758 146.687 314.785 145.224C315.811 143.761 316.325 141.837 316.325 139.45C316.325 136.897 315.741 134.972 314.573 133.676C313.418 132.381 311.988 131.733 310.281 131.733C308.523 131.733 307.08 132.393 305.951 133.715C304.822 135.024 304.257 136.98 304.257 139.585C304.257 142.177 304.828 144.134 305.97 145.455C307.125 146.764 308.562 147.418 310.281 147.418Z" fill="#333FFF"/>
<path d="M298.445 124.919H289.11V149.786H285.357V124.919H276.1V121.571H298.445V124.919Z" fill="#333FFF"/>
<path d="M262.704 140.451H247.404C247.545 142.709 248.186 144.435 249.328 145.628C250.483 146.822 251.92 147.418 253.639 147.418C254.961 147.418 256.071 147.072 256.969 146.379C257.867 145.673 258.554 144.615 259.028 143.203L262.589 143.646C262.012 145.776 260.953 147.412 259.413 148.554C257.874 149.696 255.949 150.267 253.639 150.267C250.573 150.267 248.173 149.33 246.441 147.457C244.722 145.571 243.862 142.998 243.862 139.739C243.862 136.518 244.696 133.907 246.364 131.906C248.045 129.904 250.406 128.903 253.447 128.903C254.935 128.903 256.366 129.231 257.739 129.885C259.125 130.539 260.299 131.656 261.261 133.234C262.223 134.799 262.704 137.205 262.704 140.451ZM259.144 137.603C259.003 135.524 258.355 134.029 257.2 133.118C256.058 132.194 254.807 131.733 253.447 131.733C251.817 131.733 250.477 132.278 249.424 133.369C248.372 134.459 247.763 135.871 247.596 137.603H259.144Z" fill="#333FFF"/>
<path d="M241.841 129.365L234.123 149.786H230.89L223.134 129.365H226.791L231.006 141.182C231.801 143.415 232.276 144.929 232.43 145.725H232.507C232.712 144.903 233.065 143.8 233.565 142.414L238.3 129.365H241.841Z" fill="#333FFF"/>
<path d="M219.939 149.786H216.475V129.365H219.939V149.786ZM219.939 125.497H216.475V121.571H219.939V125.497Z" fill="#333FFF"/>
<path d="M214.358 130L213.164 133.195C212.305 132.695 211.464 132.445 210.643 132.445C209.347 132.445 208.366 133.028 207.699 134.196C207.031 135.351 206.698 136.974 206.698 139.065V149.786H203.233V129.365H206.39V132.445H206.467C207.57 130.084 209.014 128.903 210.797 128.903C211.978 128.903 213.164 129.269 214.358 130Z" fill="#333FFF"/>
<path d="M175.384 121.571H185.122C186.829 121.571 188.298 121.66 189.53 121.84C190.762 122.007 191.936 122.43 193.052 123.11C194.181 123.777 195.163 124.701 195.997 125.882C196.843 127.062 197.504 128.422 197.979 129.962C198.466 131.489 198.71 133.343 198.71 135.524C198.71 139.681 197.722 143.101 195.746 145.782C193.77 148.451 190.37 149.786 185.546 149.786H175.384V121.571ZM179.118 146.437H185.161C186.393 146.437 187.49 146.36 188.452 146.206C189.427 146.052 190.409 145.635 191.397 144.955C192.397 144.275 193.225 143.158 193.879 141.606C194.534 140.053 194.861 138 194.861 135.447C194.861 134.036 194.733 132.721 194.476 131.502C194.232 130.27 193.77 129.154 193.09 128.153C192.423 127.139 191.653 126.401 190.781 125.939C189.908 125.465 189.055 125.176 188.221 125.073C187.4 124.971 186.341 124.919 185.045 124.919H179.118V146.437Z" fill="#333FFF"/>
<defs>
<clipPath id="clip0_3075_4893">
<rect width="139.518" height="190.944" fill="white"/>
</clipPath>
</defs>
</svg>
